mtllib model_0.mtl
o model_0
v 0.1700025200843811 -0.02151358313858509 0.03720233216881752 
v 0.1700025200843811 0.007448776159435511 0.042303092777729034 
v 0.006901320070028305 0.00004625599831342697 0.042976778000593185 
v 0.006901320070028305 0.027620643377304077 0.03296773508191109 
v 0.1700025200843811 0.03289493918418884 0.027674490585923195 
v 0.006901320070028305 0.042333152145147324 0.007463923189789057 
v 0.1700025200843811 0.042980872094631195 -0.000042859199311351404 
v 0.006901320070028305 0.03724391758441925 -0.021504556760191917 
v 0.1700025200843811 0.03289493918418884 -0.02766396850347519 
v 0.006901320070028305 0.014666233211755753 -0.04036775603890419 
v 0.1700025200843811 0.007448776159435511 -0.04238881170749664 
v 0.006901320070028305 -0.01466625276952982 -0.04036775603890419 
v 0.1700025200843811 -0.02151358313858509 -0.037191808223724365 
v 0.006901320070028305 -0.03724393993616104 -0.021504556760191917 
v 0.1700025200843811 -0.0403900109231472 -0.01467146072536707 
v 0.006901320070028305 -0.042333170771598816 0.007463923189789057 
v 0.1700025200843811 -0.0403900109231472 0.014681982807815075 
v 0.006901320070028305 -0.02762066200375557 0.03296773508191109 
v 0.1700025200843811 -0.02151358313858509 0.03720233216881752 
v 0.006901320070028305 0.00004625599831342697 0.042976778000593185 
v 0 0.00004625599831342697 0.03604744002223015 
v 0 0.023179130628705025 0.02757824957370758 
v 0 -0.023179151117801666 0.02757824957370758 
v 0 -0.03548584133386612 0.0062127928249537945 
v 0 0.03548581898212433 0.0062127928249537945 
v 0 -0.031136859208345413 -0.018039889633655548 
v 0 0.03113684058189392 -0.018039889633655548 
v 0 -0.012352964840829372 -0.03382337838411331 
v 0.006901320070028305 0.042333152145147324 0.007463923189789057 
v 0.006901320070028305 0.03724391758441925 -0.021504556760191917 
v 0.004600880201905966 0.04261074587702751 -0.000042859199311351404 
v 0.004600880201905966 0.032617345452308655 -0.027375247329473495 
v 0.0009201759821735322 0.03030405566096306 -0.025354189798235893 
v 0.0009201759821735322 0.006893586833029985 -0.038924142718315125 
v 0 0.012352945283055305 -0.03382337838411331 
v 0 -0.012352964840829372 -0.03382337838411331 
v 0.006901320070028305 0.014666233211755753 -0.04036775603890419 
v 0.004600880201905966 0.00735624460503459 -0.04190760850906372 
v 0.0009201759821735322 -0.01975548453629017 -0.03420834243297577 
v 0 -0.031136859208345413 -0.018039889633655548 
v 0.006901320070028305 -0.01466625276952982 -0.04036775603890419 
v 0.004600880201905966 -0.02132852002978325 -0.03690308704972267 
v 0.0009201759821735322 -0.037151407450437546 -0.013516571372747421 
v 0 -0.03548584133386612 0.0062127928249537945 
v 0.006901320070028305 -0.03724393993616104 -0.021504556760191917 
v 0.004600880201905966 -0.04001988470554352 -0.014575219713151455 
v 0.0009201759821735322 -0.037151407450437546 0.013527093455195427 
v 0 -0.023179151117801666 0.02757824957370758 
v 0.006901320070028305 -0.042333170771598816 0.007463923189789057 
v 0.004600880201905966 -0.04001988470554352 0.014585742726922035 
v 0.0009201759821735322 -0.01975548453629017 0.034218866378068924 
v 0 0.00004625599831342697 0.03604744002223015 
v 0.006901320070028305 -0.02762066200375557 0.03296773508191109 
v 0.004600880201905966 -0.02132852002978325 0.03691360726952553 
v 0.0009201759821735322 0.006893586833029985 0.03893466293811798 
v 0 0.023179130628705025 0.02757824957370758 
v 0.006901320070028305 0.00004625599831342697 0.042976778000593185 
v 0.004600880201905966 0.00735624460503459 0.04191812872886658 
v 0.0009201759821735322 0.03030405566096306 0.0253647118806839 
v 0 0.03548581898212433 0.0062127928249537945 
v 0.006901320070028305 0.027620643377304077 0.03296773508191109 
v 0.004600880201905966 0.032617345452308655 0.0273857694119215 
v 0.0009201759821735322 0.03946467489004135 -0.000042859199311351404 
v 0 0.03113684058189392 -0.018039889633655548 
v 0.006901320070028305 0.042333152145147324 0.007463923189789057 
v 0.004600880201905966 0.04261074587702751 -0.000042859199311351404 
v 0.4709000587463379 0.05500996857881546 -0.04999183490872383 
v 0.4320226311683655 0.08850637078285217 -0.0641392320394516 
v 0.4439849257469177 0.05500996857881546 0.02430606260895729 
v 0.42374104261398315 0.06444817781448364 0.05722041800618172 
v 0.3947555124759674 0.0812889114022255 0.07887459546327591 
v 0.35748836398124695 0.09396573156118393 0.08859492093324661 
v 0.3821030855178833 0.0947059839963913 -0.0822325050830841 
v 0.3183808922767639 0.09405826032161713 0.08282046765089035 
v 0.33701446652412415 0.07175816595554352 -0.09868968278169632 
v 0.2749025821685791 0.07027766108512878 0.06703697890043259 
v 0.28226399421691895 0.05084604769945145 -0.000042859199311351404 
v 0.26271024346351624 0.03770657628774643 0.034026384353637695 
v 0.24959774315357208 0.0259550753980875 0.05789410322904587 
v 0.2532784342765808 0.022901536896824837 0.04528655856847763 
v 0.24844752252101898 0.003469921415671706 0.05067604407668114 
v 0.28709492087364197 0.04677466303110123 -0.019868463277816772 
v 0.3103293478488922 0.026602797210216522 -0.10841000080108643 
v 0.2873249650001526 0.03493063151836395 -0.03690308704972267 
v 0.28594470024108887 0.017072051763534546 -0.047874536365270615 
v 0.285254567861557 -0.003469940973445773 -0.05066552013158798 
v 0.3103293478488922 -0.026602815836668015 -0.10841000080108643 
v 0.2864047884941101 -0.023734338581562042 -0.04489107057452202 
v 0.2875550091266632 -0.039649758487939835 -0.031706083565950394 
v 0.33701446652412415 -0.07175818830728531 -0.09868968278169632 
v 0.28594470024108887 -0.049087971448898315 -0.013035367242991924 
v 0.2749025821685791 -0.07027768343687057 0.06703697890043259 
v 0.3183808922767639 -0.09405828267335892 0.08282046765089035 
v 0.2797335088253021 -0.05038341134786606 0.00650151539593935 
v 0.24959774315357208 -0.025955095887184143 0.05789410322904587 
v 0.25925958156585693 -0.03326508402824402 0.038357220590114594 
v 0.2509779930114746 -0.01660941354930401 0.047981299459934235 
v 0.35748836398124695 -0.09396574646234512 0.08859492093324661 
v 0.4320226311683655 -0.08850639313459396 -0.0641392320394516 
v 0.3947555124759674 -0.08128893375396729 0.07887459546327591 
v 0.4709000587463379 -0.05500998720526695 -0.04999183490872383 
v 0.42374104261398315 -0.06444820016622543 0.05722041800618172 
v 0.4439849257469177 -0.05500998720526695 0.02430606260895729 
v 0.3183808922767639 0.057878442108631134 0.08282046765089035 
v 0.3413853049278259 0.0608394518494606 0.08820995688438416 
v 0.3183808922767639 0.09405826032161713 0.08282046765089035 
v 0.35748836398124695 0.09396573156118393 0.08859492093324661 
v 0.3650798201560974 0.05500996857881546 0.0878249928355217 
v 0.3947555124759674 0.0812889114022255 0.07887459546327591 
v 0.39866626262664795 0.05500996857881546 0.07685354351997375 
v 0.42374104261398315 0.06444817781448364 0.05722041800618172 
v 0.42604148387908936 0.05500996857881546 0.05471815541386604 
v 0.4439849257469177 0.05500996857881546 0.02430606260895729 
v 0.3821030855178833 -0.09470599889755249 -0.0822325050830841 
v 0.4320226311683655 -0.08850639313459396 -0.0641392320394516 
v 0.35748836398124695 -0.09396574646234512 0.08859492093324661 
v 0 0.03113684058189392 -0.018039889633655548 
v 0.0009201759821735322 0.03946467489004135 -0.000042859199311351404 
v 0.4439849257469177 -0.05500998720526695 0.02430606260895729 
v 0.42604148387908936 -0.05500998720526695 0.05471815541386604 
v 0.42374104261398315 -0.06444820016622543 0.05722041800618172 
v 0.39866626262664795 -0.05500998720526695 0.07685354351997375 
v 0.3947555124759674 -0.08128893375396729 0.07887459546327591 
v 0.3650798201560974 -0.05500998720526695 0.0878249928355217 
v 0.35748836398124695 -0.09396574646234512 0.08859492093324661 
v 0.3413853049278259 -0.060839470475912094 0.08820995688438416 
v 0.3183808922767639 -0.09405828267335892 0.08282046765089035 
v 0.3183808922767639 -0.057878464460372925 0.08282046765089035 
v 0.28226399421691895 0.05084604769945145 -0.000042859199311351404 
v 0.28709492087364197 0.04677466303110123 -0.019868463277816772 
v 0.21992206573486328 0.05084604769945145 -0.000042859199311351404 
v 0.21992206573486328 0.038909487426280975 -0.03266848996281624 
v 0.2873249650001526 0.03493063151836395 -0.03690308704972267 
v 0.28594470024108887 0.017072051763534546 -0.047874536365270615 
v 0.21992206573486328 0.008836748078465462 -0.04999183490872383 
v 0.285254567861557 -0.003469940973445773 -0.05066552013158798 
v 0.21992206573486328 -0.025399906560778618 -0.04402490332722664 
v 0.2864047884941101 -0.023734338581562042 -0.04489107057452202 
v 0.2875550091266632 -0.039649758487939835 -0.031706083565950394 
v 0.21992206573486328 -0.04769999906420708 -0.017366202548146248 
v 0.28594470024108887 -0.049087971448898315 -0.013035367242991924 
v 0.2797335088253021 -0.05038341134786606 0.00650151539593935 
v 0.21992206573486328 -0.04769999906420708 0.017376726493239403 
v 0.25925958156585693 -0.03326508402824402 0.038357220590114594 
v 0.21992206573486328 -0.025399906560778618 0.044035427272319794 
v 0.2509779930114746 -0.01660941354930401 0.047981299459934235 
v 0.21992206573486328 0.008836748078465462 0.05000235512852669 
v 0.24844752252101898 0.003469921415671706 0.05067604407668114 
v 0.2532784342765808 0.022901536896824837 0.04528655856847763 
v 0.21992206573486328 0.038909487426280975 0.03267901390790939 
v 0.26271024346351624 0.03770657628774643 0.034026384353637695 
v 0.28226399421691895 0.05084604769945145 -0.000042859199311351404 
v 0.17391327023506165 0.04686719551682472 -0.000042859199311351404 
v 0.1769038289785385 0.04686719551682472 -0.000042859199311351404 
v 0.17391327023506165 0.03594847768545151 -0.030166229233145714 
v 0.1769038289785385 0.03594847768545151 -0.030166229233145714 
v 0.17391327023506165 0.00818902812898159 -0.046142201870679855 
v 0.1769038289785385 0.00818902812898159 -0.046142201870679855 
v 0.17391327023506165 -0.023456744849681854 -0.040656477212905884 
v 0.1769038289785385 -0.023456744849681854 -0.040656477212905884 
v 0.17391327023506165 -0.04409126937389374 -0.016018832102417946 
v 0.1769038289785385 -0.04409126937389374 -0.016018832102417946 
v 0.17391327023506165 -0.04409126937389374 0.01602935418486595 
v 0.1769038289785385 -0.04409126937389374 0.01602935418486595 
v 0.17391327023506165 -0.023456744849681854 0.040570758283138275 
v 0.1769038289785385 -0.023456744849681854 0.040570758283138275 
v 0.17391327023506165 0.00818902812898159 0.04615272581577301 
v 0.1769038289785385 0.00818902812898159 0.04615272581577301 
v 0.17391327023506165 0.03594847768545151 0.03017675131559372 
v 0.1769038289785385 0.03594847768545151 0.03017675131559372 
v 0.17391327023506165 0.04686719551682472 -0.000042859199311351404 
v 0.1769038289785385 0.04686719551682472 -0.000042859199311351404 
v 0.17391327023506165 0.04686719551682472 -0.000042859199311351404 
v 0.1700025200843811 0.042980872094631195 -0.000042859199311351404 
v 0.17391327023506165 0.03594847768545151 0.03017675131559372 
v 0.1700025200843811 0.03289493918418884 0.027674490585923195 
v 0.17391327023506165 0.00818902812898159 0.04615272581577301 
v 0.1700025200843811 0.007448776159435511 0.042303092777729034 
v 0.17391327023506165 -0.023456744849681854 0.040570758283138275 
v 0.1700025200843811 -0.02151358313858509 0.03720233216881752 
v 0.17391327023506165 -0.04409126937389374 0.01602935418486595 
v 0.1700025200843811 -0.0403900109231472 0.014681982807815075 
v 0.17391327023506165 -0.04409126937389374 -0.016018832102417946 
v 0.1700025200843811 -0.0403900109231472 -0.01467146072536707 
v 0.17391327023506165 -0.023456744849681854 -0.040656477212905884 
v 0.1700025200843811 -0.02151358313858509 -0.037191808223724365 
v 0.17391327023506165 0.00818902812898159 -0.046142201870679855 
v 0.1700025200843811 0.007448776159435511 -0.04238881170749664 
v 0.17391327023506165 0.03594847768545151 -0.030166229233145714 
v 0.1700025200843811 0.03289493918418884 -0.02766396850347519 
v 0.17391327023506165 0.04686719551682472 -0.000042859199311351404 
v 0.1700025200843811 0.042980872094631195 -0.000042859199311351404 
v 0.21992206573486328 0.00004625599831342697 0.042976778000593185 
v 0.21992206573486328 0.027620643377304077 0.03296773508191109 
v 0.1769038289785385 0.007448776159435511 0.042303092777729034 
v 0.1769038289785385 0.03289493918418884 0.027674490585923195 
v 0.21992206573486328 0.042333152145147324 0.007463923189789057 
v 0.1769038289785385 0.042980872094631195 -0.000042859199311351404 
v 0.21992206573486328 0.03724391758441925 -0.021504556760191917 
v 0.1769038289785385 0.03289493918418884 -0.02766396850347519 
v 0.21992206573486328 0.014666233211755753 -0.04036775603890419 
v 0.1769038289785385 0.007448776159435511 -0.04238881170749664 
v 0.21992206573486328 -0.01466625276952982 -0.04036775603890419 
v 0.1769038289785385 -0.02151358313858509 -0.037191808223724365 
v 0.21992206573486328 -0.03724393993616104 -0.021504556760191917 
v 0.1769038289785385 -0.0403900109231472 -0.01467146072536707 
v 0.21992206573486328 -0.042333170771598816 0.007463923189789057 
v 0.1769038289785385 -0.0403900109231472 0.014681982807815075 
v 0.21992206573486328 -0.02762066200375557 0.03296773508191109 
v 0.1769038289785385 -0.02151358313858509 0.03720233216881752 
v 0.21992206573486328 0.00004625599831342697 0.042976778000593185 
v 0.1769038289785385 0.007448776159435511 0.042303092777729034 
v 0.3650798201560974 0.05500996857881546 0.0878249928355217 
v 0.4216706454753876 0.05500996857881546 -0.06779637932777405 
v 0.39866626262664795 0.05500996857881546 0.07685354351997375 
v 0.42604148387908936 0.05500996857881546 0.05471815541386604 
v 0.4439849257469177 0.05500996857881546 0.02430606260895729 
v 0.4709000587463379 0.05500996857881546 -0.04999183490872383 
v 0.3650798201560974 0.05500996857881546 0.0878249928355217 
v 0.3413853049278259 0.0608394518494606 0.08820995688438416 
v 0.4216706454753876 0.05500996857881546 -0.06779637932777405 
v 0.3841734826564789 0.05945147946476936 -0.08155881613492966 
v 0.3183808922767639 0.057878442108631134 0.08282046765089035 
v 0.2898554503917694 0.03567088395357132 0.07252270728349686 
v 0.3521973788738251 0.03798417001962662 -0.09320395439863205 
v 0.3650798201560974 -0.05500998720526695 0.0878249928355217 
v 0.4216706454753876 -0.05500998720526695 -0.06779637932777405 
v 0.3413853049278259 -0.060839470475912094 0.08820995688438416 
v 0.3841734826564789 -0.059451498091220856 -0.08155881613492966 
v 0.3183808922767639 -0.057878464460372925 0.08282046765089035 
v 0.3521973788738251 -0.03798418864607811 -0.09320395439863205 
v 0.2898554503917694 -0.03567090258002281 0.07252270728349686 
v 0.33954495191574097 0.00004625599831342697 -0.09772726893424988 
v 0.27904337644577026 0.00004625599831342697 0.06857682764530182 
v 0.3521973788738251 0.03798417001962662 -0.09320395439863205 
v 0.2898554503917694 0.03567088395357132 0.07252270728349686 
v 0.4709000587463379 0.05500996857881546 -0.04999183490872383 
v 0.4216706454753876 0.05500996857881546 -0.06779637932777405 
v 0.4320226311683655 0.08850637078285217 -0.0641392320394516 
v 0.3821030855178833 0.0947059839963913 -0.0822325050830841 
v 0.3841734826564789 0.05945147946476936 -0.08155881613492966 
v 0.33701446652412415 0.07175816595554352 -0.09868968278169632 
v 0.3521973788738251 0.03798417001962662 -0.09320395439863205 
v 0.3103293478488922 0.026602797210216522 -0.10841000080108643 
v 0.33954495191574097 0.00004625599831342697 -0.09772726893424988 
v 0.3103293478488922 -0.026602815836668015 -0.10841000080108643 
v 0.3521973788738251 -0.03798418864607811 -0.09320395439863205 
v 0.33701446652412415 -0.07175818830728531 -0.09868968278169632 
v 0.3841734826564789 -0.059451498091220856 -0.08155881613492966 
v 0.3821030855178833 -0.09470599889755249 -0.0822325050830841 
v 0.4216706454753876 -0.05500998720526695 -0.06779637932777405 
v 0.4320226311683655 -0.08850639313459396 -0.0641392320394516 
v 0.3650798201560974 -0.05500998720526695 0.0878249928355217 
v 0.39866626262664795 -0.05500998720526695 0.07685354351997375 
v 0.4216706454753876 -0.05500998720526695 -0.06779637932777405 
v 0.42604148387908936 -0.05500998720526695 0.05471815541386604 
v 0.4439849257469177 -0.05500998720526695 0.02430606260895729 
v 0.3183808922767639 -0.09405828267335892 0.08282046765089035 
v 0.3183808922767639 -0.057878464460372925 0.08282046765089035 
v 0.2749025821685791 -0.07027768343687057 0.06703697890043259 
v 0.2898554503917694 -0.03567090258002281 0.07252270728349686 
v 0.24959774315357208 -0.025955095887184143 0.05789410322904587 
v 0.27904337644577026 0.00004625599831342697 0.06857682764530182 
v 0.24959774315357208 0.0259550753980875 0.05789410322904587 
v 0.2898554503917694 0.03567088395357132 0.07252270728349686 
v 0.2749025821685791 0.07027766108512878 0.06703697890043259 
v 0.3183808922767639 0.057878442108631134 0.08282046765089035 
v 0.3183808922767639 0.09405826032161713 0.08282046765089035 
v 0.21992206573486328 -0.01466625276952982 -0.04036775603890419 
v 0.21992206573486328 -0.025399906560778618 -0.04402490332722664 
v 0.21992206573486328 -0.03724393993616104 -0.021504556760191917 
v 0.21992206573486328 -0.04769999906420708 -0.017366202548146248 
v 0.21992206573486328 -0.042333170771598816 0.007463923189789057 
v 0.21992206573486328 -0.04769999906420708 0.017376726493239403 
v 0.21992206573486328 -0.02762066200375557 0.03296773508191109 
v 0.21992206573486328 -0.025399906560778618 0.044035427272319794 
v 0.21992206573486328 0.00004625599831342697 0.042976778000593185 
v 0.21992206573486328 0.008836748078465462 0.05000235512852669 
v 0.21992206573486328 0.027620643377304077 0.03296773508191109 
v 0.21992206573486328 0.038909487426280975 0.03267901390790939 
v 0.21992206573486328 0.042333152145147324 0.007463923189789057 
v 0.21992206573486328 0.05084604769945145 -0.000042859199311351404 
v 0.21992206573486328 0.03724391758441925 -0.021504556760191917 
v 0.21992206573486328 0.038909487426280975 -0.03266848996281624 
v 0.21992206573486328 0.014666233211755753 -0.04036775603890419 
v 0.21992206573486328 0.008836748078465462 -0.04999183490872383 
v 0.1769038289785385 -0.0403900109231472 -0.01467146072536707 
v 0.1769038289785385 -0.023456744849681854 -0.040656477212905884 
v 0.1769038289785385 -0.02151358313858509 -0.037191808223724365 
v 0.1769038289785385 0.00818902812898159 -0.046142201870679855 
v 0.1769038289785385 0.007448776159435511 -0.04238881170749664 
v 0.1769038289785385 0.03289493918418884 -0.02766396850347519 
v 0.1769038289785385 -0.04409126937389374 -0.016018832102417946 
v 0.1769038289785385 -0.0403900109231472 0.014681982807815075 
v 0.1769038289785385 -0.04409126937389374 0.01602935418486595 
v 0.1769038289785385 -0.023456744849681854 0.040570758283138275 
v 0.1769038289785385 -0.02151358313858509 0.03720233216881752 
v 0.1769038289785385 0.00818902812898159 0.04615272581577301 
v 0.1769038289785385 0.007448776159435511 0.042303092777729034 
v 0.1769038289785385 0.03289493918418884 0.027674490585923195 
v 0.1769038289785385 0.03594847768545151 0.03017675131559372 
v 0.1769038289785385 0.042980872094631195 -0.000042859199311351404 
v 0.1769038289785385 0.04686719551682472 -0.000042859199311351404 
v 0.1769038289785385 0.03594847768545151 -0.030166229233145714 
v 0 0.012352945283055305 -0.03382337838411331 
v 0.21992206573486328 0.05084604769945145 -0.000042859199311351404 
v 0.4709000587463379 -0.05500998720526695 -0.04999183490872383 
v 0.4709000587463379 -0.05500998720526695 -0.04999183490872383 
vn 0.0037625895347446203 -0.5006163716316223 0.865661084651947 
vn 0.003741374472156167 0.17384697496891022 0.9847655892372131 
vn 0 0 1 
vn -6.654855296385834e-14 0.6435311436653137 0.7654199600219727 
vn -0.0018850128399208188 0.7668217420578003 0.641857385635376 
vn -1.0187518011258931e-13 0.9851431250572205 0.17173540592193604 
vn -1.0341130485562108e-13 0.999997615814209 0.002184694167226553 
vn 0.0018883368466049433 0.8667506575584412 -0.4987381398677826 
vn 0.00377592328004539 0.7668147683143616 -0.641857385635376 
vn 0.0018875712994486094 0.3424711227416992 -0.9395264387130737 
vn -1.7981948734397714e-14 0.1738872230052948 -0.9847655892372131 
vn 0.0018875712994486094 -0.3424711227416992 -0.9395264387130737 
vn 1.550906213350356e-13 -0.5006305575370789 -0.865661084651947 
vn 0.0018883368466049433 -0.8667506575584412 -0.4987381398677826 
vn 0.0037774231750518084 -0.9402648210525513 -0.34042292833328247 
vn 3.0518805798490645e-13 -0.9851431250572205 0.17173540592193604 
vn -0.0018863033037632704 -0.9402705430984497 0.34042292833328247 
vn 1.9993144780797861e-13 -0.6435311436653137 0.7654199600219727 
vn 0.0037625895347446203 -0.5006163716316223 0.865661084651947 
vn 0 0 1 
vn -0.999997615814209 -2.0682260971124217e-13 0.002184694167226553 
vn -0.999997615814209 -2.0682260971124217e-13 0.002184694167226553 
vn -0.999997615814209 -2.0682260971124217e-13 0.002184694167226553 
vn -0.999997615814209 -2.0682260971124217e-13 0.002184694167226553 
vn -0.999997615814209 -2.0682260971124217e-13 0.002184694167226553 
vn -0.999997615814209 -2.0682260971124217e-13 0.002184694167226553 
vn -0.999997615814209 -2.0682260971124217e-13 0.002184694167226553 
vn -0.999997615814209 -2.0682260971124217e-13 0.002184694167226553 
vn -1.0187518011258931e-13 0.9851431250572205 0.17173540592193604 
vn 0.0018883368466049433 0.8667506575584412 -0.4987381398677826 
vn -0.34044185280799866 0.940263032913208 0.002184694167226553 
vn -0.3449792265892029 0.7182214260101318 -0.6042742133140564 
vn -0.8672013282775879 0.3816923499107361 -0.3198012113571167 
vn -0.8667553067207336 0.08667173981666565 -0.4911448359489441 
vn -0.999997615814209 -2.0682260971124217e-13 0.002184694167226553 
vn -0.999997615814209 -2.0682260971124217e-13 0.002184694167226553 
vn 0.0018875712994486094 0.3424711227416992 -0.9395264387130737 
vn -0.3416009545326233 0.16450634598731995 -0.9253358840942383 
vn -0.8650558590888977 -0.2532878518104553 -0.43303996324539185 
vn -0.999997615814209 -2.0682260971124217e-13 0.002184694167226553 
vn 0.0018875712994486094 -0.3424711227416992 -0.9395264387130737 
vn -0.34143486618995667 -0.47058814764022827 -0.8136147856712341 
vn -0.8654602766036987 -0.47062239050865173 -0.17173540592193604 
vn -0.999997615814209 -2.0682260971124217e-13 0.002184694167226553 
vn 0.0018883368466049433 -0.8667506575584412 -0.4987381398677826 
vn -0.3397832214832306 -0.884462833404541 -0.3198012113571167 
vn -0.8654602766036987 -0.47062239050865173 0.17173540592193604 
vn -0.999997615814209 -2.0682260971124217e-13 0.002184694167226553 
vn 3.0518805798490645e-13 -0.9851431250572205 0.17173540592193604 
vn -0.34464943408966064 -0.8825780153274536 0.3198012113571167 
vn -0.8662024736404419 -0.24933841824531555 0.43303996324539185 
vn -0.999997615814209 -2.0682260971124217e-13 0.002184694167226553 
vn 1.9993144780797861e-13 -0.6435311436653137 0.7654199600219727 
vn -0.3432624638080597 -0.4692566692829132 0.8136147856712341 
vn -0.8667553067207336 0.08667173981666565 0.4911448359489441 
vn -0.999997615814209 -2.0682260971124217e-13 0.002184694167226553 
vn 0 0 1 
vn -0.34206539392471313 0.16353842616081238 0.9253358840942383 
vn -0.8658769130706787 0.38468730449676514 0.3198012113571167 
vn -0.999997615814209 -2.0682260971124217e-13 0.002184694167226553 
vn -6.654855296385834e-14 0.6435311436653137 0.7654199600219727 
vn -0.3427942395210266 0.7192668318748474 0.6042742133140564 
vn -0.8672792315483093 0.49781718850135803 0.002184694167226553 
vn -0.999997615814209 -2.0682260971124217e-13 0.002184694167226553 
vn -1.0187518011258931e-13 0.9851431250572205 0.17173540592193604 
vn -0.34044185280799866 0.940263032913208 0.002184694167226553 
vn 0.7712035775184631 0.5705693960189819 0.28230419754981995 
vn 0.3631052076816559 0.9222253561019897 0.1328723281621933 
vn 0.7712035775184631 0.5705693960189819 0.28230419754981995 
vn 0.6980048418045044 0.6699728965759277 0.25283506512641907 
vn 0.5015721321105957 0.8461109399795532 0.18033768236637115 
vn 0.1914011836051941 0.9791761040687561 0.06767380982637405 
vn -0.15228517353534698 0.9868277907371521 -0.05459024757146835 
vn -0.1914011836051941 0.9791761040687561 -0.06767380982637405 
vn -0.6230515241622925 0.7483997344970703 -0.22738653421401978 
vn -0.6417085528373718 0.7311315536499023 -0.23163928091526031 
vn -0.7981806993484497 0.5276501178741455 -0.29067665338516235 
vn -0.8640502095222473 0.39214417338371277 -0.31565824151039124 
vn -0.9058063626289368 0.26811516284942627 -0.3280687630176544 
vn -0.9133906364440918 0.235298290848732 -0.33219319581985474 
vn -0.9395137429237366 0.03776417300105095 -0.34042292833328247 
vn -0.8193914294242859 0.4890609383583069 -0.2990269064903259 
vn -0.9036341309547424 0.27534744143486023 -0.3280687630176544 
vn -0.876082718372345 0.3608410060405731 -0.3198012113571167 
vn -0.9243842363357544 0.18002380430698395 -0.3363112509250641 
vn -0.9395137429237366 -0.03776417300105095 -0.34042292833328247 
vn -0.9036341309547424 -0.27534744143486023 -0.3280687630176544 
vn -0.9095070362091064 -0.24988918006420135 -0.33219319581985474 
vn -0.8561394810676575 -0.41229504346847534 -0.31150925159454346 
vn -0.6230515241622925 -0.7483997344970703 -0.22738653421401978 
vn -0.8069931864738464 -0.5116862058639526 -0.2948545813560486 
vn -0.6417085528373718 -0.7311315536499023 -0.23163928091526031 
vn -0.1914011836051941 -0.9791761040687561 -0.06767380982637405 
vn -0.7981806993484497 -0.5276501178741455 -0.29067665338516235 
vn -0.9058063626289368 -0.26811516284942627 -0.3280687630176544 
vn -0.8817254900932312 -0.34682467579841614 -0.3198012113571167 
vn -0.9257972836494446 -0.1726098507642746 -0.3363112509250641 
vn 0.1914011836051941 -0.9791761040687561 0.06767380982637405 
vn 0.3631052076816559 -0.9222253561019897 0.1328723281621933 
vn 0.5015721321105957 -0.8461109399795532 0.18033768236637115 
vn 0.7712035775184631 -0.5705693960189819 0.28230419754981995 
vn 0.6980048418045044 -0.6699728965759277 0.25283506512641907 
vn 0.7712035775184631 -0.5705693960189819 0.28230419754981995 
vn -0.3424763083457947 -7.083201213065049e-14 0.9395264387130737 
vn -0.10467331111431122 -2.164885939514704e-14 0.9945066571235657 
vn -0.3424763083457947 -7.083201213065049e-14 0.9395264387130737 
vn 0.05677155405282974 0 0.9983872175216675 
vn 0.13503733277320862 0 0.990840494632721 
vn 0.43893831968307495 0 0.8985171914100647 
vn 0.47776663303375244 0 0.8784868121147156 
vn 0.7351005673408508 0 0.677958071231842 
vn 0.758344829082489 0 0.651853621006012 
vn 0.9402724504470825 0 0.34042292833328247 
vn -0.15228517353534698 -0.9868277907371521 -0.05459024757146835 
vn 0.3631052076816559 -0.9222253561019897 0.1328723281621933 
vn 0.1914011836051941 -0.9791761040687561 0.06767380982637405 
vn -0.999997615814209 -2.0682260971124217e-13 0.002184694167226553 
vn -0.8672792315483093 0.49781718850135803 0.002184694167226553 
vn 0.9402724504470825 0 0.34042292833328247 
vn 0.758344829082489 0 0.651853621006012 
vn 0.7351005673408508 0 0.677958071231842 
vn 0.47776663303375244 0 0.8784868121147156 
vn 0.43893831968307495 0 0.8985171914100647 
vn 0.13503733277320862 0 0.990840494632721 
vn 0.05677155405282974 0 0.9983872175216675 
vn -0.10467331111431122 -2.164885939514704e-14 0.9945066571235657 
vn -0.3424763083457947 -7.083201213065049e-14 0.9395264387130737 
vn -0.3424763083457947 -7.083201213065049e-14 0.9395264387130737 
vn -1.0341130485562108e-13 0.999997615814209 0.002184694167226553 
vn 0.0037778534460812807 0.9211313724517822 -0.3892335295677185 
vn -1.0341130485562108e-13 0.999997615814209 0.002184694167226553 
vn 0.00377592328004539 0.7668147683143616 -0.641857385635376 
vn 0.0037806248292326927 0.6859368681907654 -0.7276512384414673 
vn 0.0037772103678435087 0.3342316746711731 -0.9424833655357361 
vn -1.7981948734397714e-14 0.1738872230052948 -0.9847655892372131 
vn 0.0037817833945155144 -0.06975089013576508 -0.9975572824478149 
vn 1.550906213350356e-13 -0.5006305575370789 -0.865661084651947 
vn -0.0018922992749139667 -0.46620672941207886 -0.8846737742424011 
vn 0.001889461767859757 -0.7806602716445923 -0.6249527335166931 
vn 0.0037774231750518084 -0.9402648210525513 -0.34042292833328247 
vn 3.0023851243718425e-13 -0.9663954377174377 -0.25706008076667786 
vn 0.0018881993601098657 -0.9917024970054626 0.12854042649269104 
vn -0.0018863033037632704 -0.9402705430984497 0.34042292833328247 
vn -0.0018861298449337482 -0.6568071246147156 0.7540562748908997 
vn 0.0037625895347446203 -0.5006163716316223 0.865661084651947 
vn 0.0018757632933557034 -0.32599881291389465 0.9453682899475098 
vn 0.003741374472156167 0.17384697496891022 0.9847655892372131 
vn -0.0018595322035253048 0.0698285773396492 0.9975572824478149 
vn -4.6605331627345287e-14 0.4506781995296478 0.8926864862442017 
vn -0.0018850128399208188 0.7668217420578003 0.641857385635376 
vn 0.0018864733865484595 0.7409945726394653 0.6715083718299866 
vn -1.0341130485562108e-13 0.999997615814209 0.002184694167226553 
vn -1.0341130485562108e-13 0.999997615814209 0.002184694167226553 
vn -1.0341130485562108e-13 0.999997615814209 0.002184694167226553 
vn 0.00377592328004539 0.7668147683143616 -0.641857385635376 
vn 0.00377592328004539 0.7668147683143616 -0.641857385635376 
vn -1.7981948734397714e-14 0.1738872230052948 -0.9847655892372131 
vn -1.7981948734397714e-14 0.1738872230052948 -0.9847655892372131 
vn 1.550906213350356e-13 -0.5006305575370789 -0.865661084651947 
vn 1.550906213350356e-13 -0.5006305575370789 -0.865661084651947 
vn 0.0037774231750518084 -0.9402648210525513 -0.34042292833328247 
vn 0.0037774231750518084 -0.9402648210525513 -0.34042292833328247 
vn -0.0018863033037632704 -0.9402705430984497 0.34042292833328247 
vn -0.0018863033037632704 -0.9402705430984497 0.34042292833328247 
vn 0.0037625895347446203 -0.5006163716316223 0.865661084651947 
vn 0.0037625895347446203 -0.5006163716316223 0.865661084651947 
vn 0.003741374472156167 0.17384697496891022 0.9847655892372131 
vn 0.003741374472156167 0.17384697496891022 0.9847655892372131 
vn -0.0018850128399208188 0.7668217420578003 0.641857385635376 
vn -0.0018850128399208188 0.7668217420578003 0.641857385635376 
vn -1.0341130485562108e-13 0.999997615814209 0.002184694167226553 
vn -1.0341130485562108e-13 0.999997615814209 0.002184694167226553 
vn -0.7071051001548767 0.7071051001548767 0.002184694167226553 
vn -0.7071051001548767 0.7071051001548767 0.002184694167226553 
vn -0.7069545388221741 0.5434553623199463 0.45262736082077026 
vn -0.7069545388221741 0.5434553623199463 0.45262736082077026 
vn -0.7069674134254456 0.11998212337493896 0.6969945430755615 
vn -0.7069674134254456 0.11998212337493896 0.6969945430755615 
vn -0.7083423733711243 -0.3530844748020172 0.6112139225006104 
vn -0.7083423733711243 -0.3530844748020172 0.6112139225006104 
vn -0.7074325680732727 -0.6647375822067261 0.2401314377784729 
vn -0.7074325680732727 -0.6647375822067261 0.2401314377784729 
vn -0.7074325680732727 -0.6647375822067261 -0.2401314377784729 
vn -0.7074325680732727 -0.6647375822067261 -0.2401314377784729 
vn -0.7063978314399719 -0.35695892572402954 -0.6112139225006104 
vn -0.7063978314399719 -0.35695892572402954 -0.6112139225006104 
vn -0.7068995833396912 0.1203809306025505 -0.6969945430755615 
vn -0.7068995833396912 0.1203809306025505 -0.6969945430755615 
vn -0.7087715268135071 0.541083574295044 -0.45262736082077026 
vn -0.7087715268135071 0.541083574295044 -0.45262736082077026 
vn -0.7071051001548767 0.7071051001548767 0.002184694167226553 
vn -0.7071051001548767 0.7071051001548767 0.002184694167226553 
vn 0 0 1 
vn -6.654855296385834e-14 0.6435311436653137 0.7654199600219727 
vn 0.003741374472156167 0.17384697496891022 0.9847655892372131 
vn -0.0018850128399208188 0.7668217420578003 0.641857385635376 
vn -1.0187518011258931e-13 0.9851431250572205 0.17173540592193604 
vn -1.0341130485562108e-13 0.999997615814209 0.002184694167226553 
vn 0.0018883368466049433 0.8667506575584412 -0.4987381398677826 
vn 0.00377592328004539 0.7668147683143616 -0.641857385635376 
vn 0.0018875712994486094 0.3424711227416992 -0.9395264387130737 
vn -1.7981948734397714e-14 0.1738872230052948 -0.9847655892372131 
vn 0.0018875712994486094 -0.3424711227416992 -0.9395264387130737 
vn 1.550906213350356e-13 -0.5006305575370789 -0.865661084651947 
vn 0.0018883368466049433 -0.8667506575584412 -0.4987381398677826 
vn 0.0037774231750518084 -0.9402648210525513 -0.34042292833328247 
vn 3.0518805798490645e-13 -0.9851431250572205 0.17173540592193604 
vn -0.0018863033037632704 -0.9402705430984497 0.34042292833328247 
vn 1.9993144780797861e-13 -0.6435311436653137 0.7654199600219727 
vn 0.0037625895347446203 -0.5006163716316223 0.865661084651947 
vn 0 0 1 
vn 0.003741374472156167 0.17384697496891022 0.9847655892372131 
vn 3.097898456858039e-13 -0.999997615814209 0.002184694167226553 
vn 3.097898456858039e-13 -0.999997615814209 0.002184694167226553 
vn 3.097898456858039e-13 -0.999997615814209 0.002184694167226553 
vn 3.097898456858039e-13 -0.999997615814209 0.002184694167226553 
vn 3.097898456858039e-13 -0.999997615814209 0.002184694167226553 
vn 3.097898456858039e-13 -0.999997615814209 0.002184694167226553 
vn -0.40503036975860596 -0.9025948643684387 -0.1458524912595749 
vn -0.06789521872997284 -0.9974030256271362 -0.024029340595006943 
vn -0.40503036975860596 -0.9025948643684387 -0.1458524912595749 
vn 0.21345254778862 -0.9739623069763184 0.0763898640871048 
vn 0.2971849739551544 -0.9488229751586914 0.10684575140476227 
vn 0.763583242893219 -0.582748293876648 0.2781098484992981 
vn 0.7347676157951355 -0.62420254945755 0.26549527049064636 
vn -0.40503036975860596 0.9025948643684387 -0.1458524912595749 
vn -0.40503036975860596 0.9025948643684387 -0.1458524912595749 
vn -0.06789521872997284 0.9974030256271362 -0.024029340595006943 
vn 0.21345254778862 0.9739623069763184 0.0763898640871048 
vn 0.2971849739551544 0.9488229751586914 0.10684575140476227 
vn 0.7347676157951355 0.62420254945755 0.26549527049064636 
vn 0.763583242893219 0.582748293876648 0.2781098484992981 
vn 0.9402724504470825 0 0.34042292833328247 
vn 0.9402724504470825 0 0.34042292833328247 
vn 0.7347676157951355 -0.62420254945755 0.26549527049064636 
vn 0.763583242893219 -0.582748293876648 0.2781098484992981 
vn 0.3424763083457947 0 -0.9395264387130737 
vn 0.3424763083457947 0 -0.9395264387130737 
vn 0.3424763083457947 0 -0.9395264387130737 
vn 0.3424763083457947 0 -0.9395264387130737 
vn 0.3424763083457947 0 -0.9395264387130737 
vn 0.3424763083457947 0 -0.9395264387130737 
vn 0.3424763083457947 0 -0.9395264387130737 
vn 0.3424763083457947 0 -0.9395264387130737 
vn 0.3424763083457947 0 -0.9395264387130737 
vn 0.3424763083457947 0 -0.9395264387130737 
vn 0.3424763083457947 0 -0.9395264387130737 
vn 0.3424763083457947 0 -0.9395264387130737 
vn 0.3424763083457947 0 -0.9395264387130737 
vn 0.3424763083457947 0 -0.9395264387130737 
vn 0.3424763083457947 0 -0.9395264387130737 
vn 0.3424763083457947 0 -0.9395264387130737 
vn -1.0341130485562108e-13 0.999997615814209 0.002184694167226553 
vn -1.0341130485562108e-13 0.999997615814209 0.002184694167226553 
vn -1.0341130485562108e-13 0.999997615814209 0.002184694167226553 
vn -1.0341130485562108e-13 0.999997615814209 0.002184694167226553 
vn -1.0341130485562108e-13 0.999997615814209 0.002184694167226553 
vn -0.3424763083457947 -7.083201213065049e-14 0.9395264387130737 
vn -0.3424763083457947 -7.083201213065049e-14 0.9395264387130737 
vn -0.3424763083457947 -7.083201213065049e-14 0.9395264387130737 
vn -0.3424763083457947 -7.083201213065049e-14 0.9395264387130737 
vn -0.3424763083457947 -7.083201213065049e-14 0.9395264387130737 
vn -0.3424763083457947 -7.083201213065049e-14 0.9395264387130737 
vn -0.3424763083457947 -7.083201213065049e-14 0.9395264387130737 
vn -0.3424763083457947 -7.083201213065049e-14 0.9395264387130737 
vn -0.3424763083457947 -7.083201213065049e-14 0.9395264387130737 
vn -0.3424763083457947 -7.083201213065049e-14 0.9395264387130737 
vn -0.3424763083457947 -7.083201213065049e-14 0.9395264387130737 
vn -0.999997615814209 -2.0682260971124217e-13 0.002184694167226553 
vn -0.999997615814209 -2.0682260971124217e-13 0.002184694167226553 
vn -0.999997615814209 -2.0682260971124217e-13 0.002184694167226553 
vn -0.999997615814209 -2.0682260971124217e-13 0.002184694167226553 
vn -0.999997615814209 -2.0682260971124217e-13 0.002184694167226553 
vn -0.999997615814209 -2.0682260971124217e-13 0.002184694167226553 
vn -0.999997615814209 -2.0682260971124217e-13 0.002184694167226553 
vn -0.999997615814209 -2.0682260971124217e-13 0.002184694167226553 
vn -0.999997615814209 -2.0682260971124217e-13 0.002184694167226553 
vn -0.999997615814209 -2.0682260971124217e-13 0.002184694167226553 
vn -0.999997615814209 -2.0682260971124217e-13 0.002184694167226553 
vn -0.999997615814209 -2.0682260971124217e-13 0.002184694167226553 
vn -0.999997615814209 -2.0682260971124217e-13 0.002184694167226553 
vn -0.999997615814209 -2.0682260971124217e-13 0.002184694167226553 
vn -0.999997615814209 -2.0682260971124217e-13 0.002184694167226553 
vn -0.999997615814209 -2.0682260971124217e-13 0.002184694167226553 
vn -0.999997615814209 -2.0682260971124217e-13 0.002184694167226553 
vn -0.999997615814209 -2.0682260971124217e-13 0.002184694167226553 
vn 0.999997615814209 0 0.002184694167226553 
vn 0.999997615814209 0 0.002184694167226553 
vn 0.999997615814209 0 0.002184694167226553 
vn 0.999997615814209 0 0.002184694167226553 
vn 0.999997615814209 0 0.002184694167226553 
vn 0.999997615814209 0 0.002184694167226553 
vn 0.999997615814209 0 0.002184694167226553 
vn 0.999997615814209 0 0.002184694167226553 
vn 0.999997615814209 0 0.002184694167226553 
vn 0.999997615814209 0 0.002184694167226553 
vn 0.999997615814209 0 0.002184694167226553 
vn 0.999997615814209 0 0.002184694167226553 
vn 0.999997615814209 0 0.002184694167226553 
vn 0.999997615814209 0 0.002184694167226553 
vn 0.999997615814209 0 0.002184694167226553 
vn 0.999997615814209 0 0.002184694167226553 
vn 0.999997615814209 0 0.002184694167226553 
vn 0.999997615814209 0 0.002184694167226553 
vn -0.999997615814209 -2.0682260971124217e-13 0.002184694167226553 
vn -1.0341130485562108e-13 0.999997615814209 0.002184694167226553 
vn 0.3424763083457947 0 -0.9395264387130737 
vn -1.0341130485562108e-13 0.999997615814209 0.002184694167226553 
s on 
f 1//1 2//2 3//3 
f 2//2 4//4 3//3 
f 3//3 4//4 4//4 
f 4//4 2//2 4//4 
f 4//4 2//2 2//2 
f 2//2 5//5 2//2 
f 2//2 5//5 4//4 
f 5//5 6//6 4//4 
f 4//4 6//6 6//6 
f 6//6 5//5 6//6 
f 6//6 5//5 5//5 
f 5//5 7//7 5//5 
f 5//5 7//7 6//6 
f 7//7 8//8 6//6 
f 6//6 8//8 8//8 
f 8//8 7//7 8//8 
f 8//8 7//7 7//7 
f 7//7 9//9 7//7 
f 7//7 9//9 8//8 
f 9//9 10//10 8//8 
f 8//8 10//10 10//10 
f 10//10 9//9 10//10 
f 10//10 9//9 9//9 
f 9//9 11//11 9//9 
f 9//9 11//11 10//10 
f 11//11 12//12 10//10 
f 10//10 12//12 12//12 
f 12//12 11//11 12//12 
f 12//12 11//11 11//11 
f 11//11 13//13 11//11 
f 11//11 13//13 12//12 
f 13//13 14//14 12//12 
f 12//12 14//14 14//14 
f 14//14 13//13 14//14 
f 14//14 13//13 13//13 
f 13//13 15//15 13//13 
f 13//13 15//15 14//14 
f 15//15 16//16 14//14 
f 14//14 16//16 16//16 
f 16//16 15//15 16//16 
f 16//16 15//15 15//15 
f 15//15 17//17 15//15 
f 15//15 17//17 16//16 
f 17//17 18//18 16//16 
f 16//16 18//18 18//18 
f 18//18 17//17 18//18 
f 18//18 17//17 17//17 
f 17//17 19//19 17//17 
f 17//17 19//19 18//18 
f 19//19 20//20 18//18 
f 18//18 20//20 20//20 
f 20//20 21//21 20//20 
f 20//20 21//21 21//21 
f 21//21 22//22 21//21 
f 21//21 22//22 23//23 
f 22//22 24//24 23//23 
f 23//23 24//24 24//24 
f 24//24 22//22 24//24 
f 24//24 22//22 22//22 
f 22//22 25//25 22//22 
f 22//22 25//25 24//24 
f 25//25 26//26 24//24 
f 24//24 26//26 26//26 
f 26//26 25//25 26//26 
f 26//26 25//25 25//25 
f 25//25 27//27 25//25 
f 25//25 27//27 26//26 
f 27//27 28//28 26//26 
f 26//26 28//28 28//28 
f 28//28 29//29 28//28 
f 28//28 29//29 29//29 
f 29//29 30//30 29//29 
f 29//29 30//30 31//31 
f 30//30 32//32 31//31 
f 31//31 32//32 33//33 
f 32//32 34//34 33//33 
f 33//33 34//34 35//35 
f 34//34 36//36 35//35 
f 35//35 36//36 36//36 
f 36//36 30//30 36//36 
f 36//36 30//30 30//30 
f 30//30 37//37 30//30 
f 30//30 37//37 32//32 
f 37//37 38//38 32//32 
f 32//32 38//38 34//34 
f 38//38 39//39 34//34 
f 34//34 39//39 36//36 
f 39//39 40//40 36//36 
f 36//36 40//40 40//40 
f 40//40 37//37 40//40 
f 40//40 37//37 37//37 
f 37//37 41//41 37//37 
f 37//37 41//41 38//38 
f 41//41 42//42 38//38 
f 38//38 42//42 39//39 
f 42//42 43//43 39//39 
f 39//39 43//43 40//40 
f 43//43 44//44 40//40 
f 40//40 44//44 44//44 
f 44//44 41//41 44//44 
f 44//44 41//41 41//41 
f 41//41 45//45 41//41 
f 41//41 45//45 42//42 
f 45//45 46//46 42//42 
f 42//42 46//46 43//43 
f 46//46 47//47 43//43 
f 43//43 47//47 44//44 
f 47//47 48//48 44//44 
f 44//44 48//48 48//48 
f 48//48 45//45 48//48 
f 48//48 45//45 45//45 
f 45//45 49//49 45//45 
f 45//45 49//49 46//46 
f 49//49 50//50 46//46 
f 46//46 50//50 47//47 
f 50//50 51//51 47//47 
f 47//47 51//51 48//48 
f 51//51 52//52 48//48 
f 48//48 52//52 52//52 
f 52//52 49//49 52//52 
f 52//52 49//49 49//49 
f 49//49 53//53 49//49 
f 49//49 53//53 50//50 
f 53//53 54//54 50//50 
f 50//50 54//54 51//51 
f 54//54 55//55 51//51 
f 51//51 55//55 52//52 
f 55//55 56//56 52//52 
f 52//52 56//56 56//56 
f 56//56 53//53 56//56 
f 56//56 53//53 53//53 
f 53//53 57//57 53//53 
f 53//53 57//57 54//54 
f 57//57 58//58 54//54 
f 54//54 58//58 55//55 
f 58//58 59//59 55//55 
f 55//55 59//59 56//56 
f 59//59 60//60 56//56 
f 56//56 60//60 60//60 
f 60//60 57//57 60//60 
f 60//60 57//57 57//57 
f 57//57 61//61 57//57 
f 57//57 61//61 58//58 
f 61//61 62//62 58//58 
f 58//58 62//62 59//59 
f 62//62 63//63 59//59 
f 59//59 63//63 60//60 
f 63//63 64//64 60//60 
f 60//60 64//64 64//64 
f 64//64 61//61 64//64 
f 64//64 61//61 61//61 
f 61//61 65//65 61//61 
f 61//61 65//65 62//62 
f 65//65 66//66 62//62 
f 62//62 66//66 63//63 
f 66//66 63//63 63//63 
f 63//63 63//63 67//67 
f 63//63 67//67 67//67 
f 67//67 67//67 67//67 
f 67//67 68//68 67//67 
f 67//67 68//68 69//69 
f 68//68 70//70 69//69 
f 69//69 70//70 70//70 
f 70//70 68//68 70//70 
f 70//70 68//68 71//71 
f 68//68 72//72 71//71 
f 71//71 72//72 72//72 
f 72//72 68//68 72//72 
f 72//72 68//68 68//68 
f 68//68 73//73 68//68 
f 68//68 73//73 72//72 
f 73//73 74//74 72//72 
f 72//72 74//74 74//74 
f 74//74 73//73 74//74 
f 74//74 73//73 73//73 
f 73//73 75//75 73//73 
f 73//73 75//75 74//74 
f 75//75 76//76 74//74 
f 74//74 76//76 76//76 
f 76//76 75//75 76//76 
f 76//76 75//75 75//75 
f 75//75 77//77 75//75 
f 75//75 77//77 76//76 
f 77//77 78//78 76//76 
f 76//76 78//78 79//79 
f 78//78 80//80 79//79 
f 79//79 80//80 81//81 
f 80//80 81//81 81//81 
f 81//81 81//81 77//77 
f 81//81 77//77 77//77 
f 77//77 77//77 77//77 
f 77//77 75//75 77//77 
f 77//77 75//75 82//82 
f 75//75 83//83 82//82 
f 82//82 83//83 84//84 
f 83//83 85//85 84//84 
f 84//84 85//85 85//85 
f 85//85 83//83 85//85 
f 85//85 83//83 86//86 
f 83//83 87//87 86//86 
f 86//86 87//87 88//88 
f 87//87 89//89 88//88 
f 88//88 89//89 89//89 
f 89//89 87//87 89//89 
f 89//89 87//87 87//87 
f 87//87 90//90 87//87 
f 87//87 90//90 89//89 
f 90//90 91//91 89//89 
f 89//89 91//91 91//91 
f 91//91 90//90 91//91 
f 91//91 90//90 92//92 
f 90//90 93//93 92//92 
f 92//92 93//93 93//93 
f 93//93 91//91 93//93 
f 93//93 91//91 91//91 
f 91//91 92//92 91//91 
f 91//91 92//92 94//94 
f 92//92 95//95 94//94 
f 94//94 95//95 96//96 
f 95//95 97//97 96//96 
f 96//96 97//97 97//97 
f 97//97 95//95 97//97 
f 97//97 95//95 81//81 
f 95//95 79//79 81//81 
f 81//81 79//79 79//79 
f 79//79 98//98 79//79 
f 79//79 98//98 98//98 
f 98//98 99//99 98//98 
f 98//98 99//99 100//100 
f 99//99 101//101 100//100 
f 100//100 101//101 102//102 
f 101//101 103//103 102//102 
f 102//102 103//103 103//103 
f 103//103 104//104 103//103 
f 103//103 104//104 104//104 
f 104//104 105//105 104//104 
f 104//104 105//105 106//106 
f 105//105 107//107 106//106 
f 106//106 107//107 107//107 
f 107//107 105//105 107//107 
f 107//107 105//105 105//105 
f 105//105 108//108 105//105 
f 105//105 108//108 107//107 
f 108//108 109//109 107//107 
f 107//107 109//109 109//109 
f 109//109 108//108 109//109 
f 109//109 108//108 108//108 
f 108//108 110//110 108//108 
f 108//108 110//110 109//109 
f 110//110 111//111 109//109 
f 109//109 111//111 111//111 
f 111//111 110//110 111//111 
f 111//111 110//110 110//110 
f 110//110 112//112 110//110 
f 110//110 112//112 111//111 
f 112//112 113//113 111//111 
f 111//111 113//113 113//113 
f 113//113 90//90 113//113 
f 113//113 90//90 90//90 
f 90//90 114//114 90//90 
f 90//90 114//114 93//93 
f 114//114 115//115 93//93 
f 93//93 115//115 116//116 
f 115//115 116//116 116//116 
f 116//116 116//116 35//35 
f 116//116 35//35 35//35 
f 35//35 35//35 35//35 
f 35//35 117//117 35//35 
f 35//35 117//117 33//33 
f 117//117 118//118 33//33 
f 33//33 118//118 31//31 
f 118//118 31//31 31//31 
f 31//31 31//31 119//119 
f 31//31 119//119 119//119 
f 119//119 119//119 119//119 
f 119//119 120//120 119//119 
f 119//119 120//120 121//121 
f 120//120 122//122 121//121 
f 121//121 122//122 123//123 
f 122//122 124//124 123//123 
f 123//123 124//124 125//125 
f 124//124 126//126 125//125 
f 125//125 126//126 127//127 
f 126//126 128//128 127//127 
f 127//127 128//128 128//128 
f 128//128 129//129 128//128 
f 128//128 129//129 129//129 
f 129//129 130//130 129//129 
f 129//129 130//130 131//131 
f 130//130 132//132 131//131 
f 131//131 132//132 132//132 
f 132//132 130//130 132//132 
f 132//132 130//130 130//130 
f 130//130 133//133 130//130 
f 130//130 133//133 132//132 
f 133//133 134//134 132//132 
f 132//132 134//134 135//135 
f 134//134 136//136 135//135 
f 135//135 136//136 137//137 
f 136//136 138//138 137//137 
f 137//137 138//138 139//139 
f 138//138 139//139 139//139 
f 139//139 139//139 137//137 
f 139//139 137//137 137//137 
f 137//137 137//137 137//137 
f 137//137 139//139 137//137 
f 137//137 139//139 140//140 
f 139//139 141//141 140//140 
f 140//140 141//141 142//142 
f 141//141 142//142 142//142 
f 142//142 142//142 140//140 
f 142//142 140//140 140//140 
f 140//140 140//140 140//140 
f 140//140 142//142 140//140 
f 140//140 142//142 143//143 
f 142//142 144//144 143//143 
f 143//143 144//144 145//145 
f 144//144 146//146 145//145 
f 145//145 146//146 147//147 
f 146//146 148//148 147//147 
f 147//147 148//148 149//149 
f 148//148 149//149 149//149 
f 149//149 149//149 147//147 
f 149//149 147//147 147//147 
f 147//147 147//147 147//147 
f 147//147 149//149 147//147 
f 147//147 149//149 150//150 
f 149//149 151//151 150//150 
f 150//150 151//151 152//152 
f 151//151 152//152 152//152 
f 152//152 152//152 153//153 
f 152//152 153//153 153//153 
f 153//153 153//153 153//153 
f 153//153 154//154 153//153 
f 153//153 154//154 155//155 
f 154//154 156//156 155//155 
f 155//155 156//156 157//157 
f 156//156 158//158 157//157 
f 157//157 158//158 159//159 
f 158//158 160//160 159//159 
f 159//159 160//160 161//161 
f 160//160 162//162 161//161 
f 161//161 162//162 163//163 
f 162//162 164//164 163//163 
f 163//163 164//164 165//165 
f 164//164 166//166 165//165 
f 165//165 166//166 167//167 
f 166//166 168//168 167//167 
f 167//167 168//168 169//169 
f 168//168 170//170 169//169 
f 169//169 170//170 171//171 
f 170//170 172//172 171//171 
f 171//171 172//172 172//172 
f 172//172 173//173 172//172 
f 172//172 173//173 173//173 
f 173//173 174//174 173//173 
f 173//173 174//174 175//175 
f 174//174 176//176 175//175 
f 175//175 176//176 177//177 
f 176//176 178//178 177//177 
f 177//177 178//178 179//179 
f 178//178 180//180 179//179 
f 179//179 180//180 181//181 
f 180//180 182//182 181//181 
f 181//181 182//182 183//183 
f 182//182 184//184 183//183 
f 183//183 184//184 185//185 
f 184//184 186//186 185//185 
f 185//185 186//186 187//187 
f 186//186 188//188 187//187 
f 187//187 188//188 189//189 
f 188//188 190//190 189//189 
f 189//189 190//190 191//191 
f 190//190 192//192 191//191 
f 191//191 192//192 192//192 
f 192//192 193//193 192//192 
f 192//192 193//193 193//193 
f 193//193 194//194 193//193 
f 193//193 194//194 195//195 
f 194//194 196//196 195//195 
f 195//195 196//196 196//196 
f 196//196 194//194 196//196 
f 196//196 194//194 194//194 
f 194//194 197//197 194//194 
f 194//194 197//197 196//196 
f 197//197 198//198 196//196 
f 196//196 198//198 198//198 
f 198//198 197//197 198//198 
f 198//198 197//197 197//197 
f 197//197 199//199 197//197 
f 197//197 199//199 198//198 
f 199//199 200//200 198//198 
f 198//198 200//200 200//200 
f 200//200 199//199 200//200 
f 200//200 199//199 199//199 
f 199//199 201//201 199//199 
f 199//199 201//201 200//200 
f 201//201 202//202 200//200 
f 200//200 202//202 202//202 
f 202//202 201//201 202//202 
f 202//202 201//201 201//201 
f 201//201 203//203 201//201 
f 201//201 203//203 202//202 
f 203//203 204//204 202//202 
f 202//202 204//204 204//204 
f 204//204 203//203 204//204 
f 204//204 203//203 203//203 
f 203//203 205//205 203//203 
f 203//203 205//205 204//204 
f 205//205 206//206 204//204 
f 204//204 206//206 206//206 
f 206//206 205//205 206//206 
f 206//206 205//205 205//205 
f 205//205 207//207 205//205 
f 205//205 207//207 206//206 
f 207//207 208//208 206//206 
f 206//206 208//208 208//208 
f 208//208 207//207 208//208 
f 208//208 207//207 207//207 
f 207//207 209//209 207//207 
f 207//207 209//209 208//208 
f 209//209 210//210 208//208 
f 208//208 210//210 210//210 
f 210//210 209//209 210//210 
f 210//210 209//209 209//209 
f 209//209 211//211 209//209 
f 209//209 211//211 210//210 
f 211//211 212//212 210//210 
f 210//210 212//212 212//212 
f 212//212 213//213 212//212 
f 212//212 213//213 213//213 
f 213//213 214//214 213//213 
f 213//213 214//214 215//215 
f 214//214 216//216 215//215 
f 215//215 216//216 216//216 
f 216//216 214//214 216//216 
f 216//216 214//214 217//217 
f 214//214 218//218 217//217 
f 217//217 218//218 218//218 
f 218//218 219//219 218//218 
f 218//218 219//219 219//219 
f 219//219 220//220 219//219 
f 219//219 220//220 221//221 
f 220//220 222//222 221//221 
f 221//221 222//222 222//222 
f 222//222 220//220 222//222 
f 222//222 220//220 220//220 
f 220//220 223//223 220//220 
f 220//220 223//223 222//222 
f 223//223 224//224 222//222 
f 222//222 224//224 225//225 
f 224//224 225//225 225//225 
f 225//225 225//225 226//226 
f 225//225 226//226 226//226 
f 226//226 226//226 226//226 
f 226//226 227//227 226//226 
f 226//226 227//227 228//228 
f 227//227 229//229 228//228 
f 228//228 229//229 230//230 
f 229//229 231//231 230//230 
f 230//230 231//231 232//232 
f 231//231 233//233 232//232 
f 232//232 233//233 234//234 
f 233//233 235//235 234//234 
f 234//234 235//235 236//236 
f 235//235 236//236 236//236 
f 236//236 236//236 237//237 
f 236//236 237//237 237//237 
f 237//237 237//237 237//237 
f 237//237 238//238 237//237 
f 237//237 238//238 239//239 
f 238//238 240//240 239//239 
f 239//239 240//240 240//240 
f 240//240 238//238 240//240 
f 240//240 238//238 238//238 
f 238//238 241//241 238//238 
f 238//238 241//241 240//240 
f 241//241 242//242 240//240 
f 240//240 242//242 242//242 
f 242//242 241//241 242//242 
f 242//242 241//241 241//241 
f 241//241 243//243 241//241 
f 241//241 243//243 242//242 
f 243//243 244//244 242//242 
f 242//242 244//244 244//244 
f 244//244 243//243 244//244 
f 244//244 243//243 243//243 
f 243//243 245//245 243//243 
f 243//243 245//245 244//244 
f 245//245 246//246 244//244 
f 244//244 246//246 246//246 
f 246//246 245//245 246//246 
f 246//246 245//245 245//245 
f 245//245 247//247 245//245 
f 245//245 247//247 246//246 
f 247//247 248//248 246//246 
f 246//246 248//248 248//248 
f 248//248 247//247 248//248 
f 248//248 247//247 247//247 
f 247//247 249//249 247//247 
f 247//247 249//249 248//248 
f 249//249 250//250 248//248 
f 248//248 250//250 250//250 
f 250//250 249//249 250//250 
f 250//250 249//249 249//249 
f 249//249 251//251 249//249 
f 249//249 251//251 250//250 
f 251//251 252//252 250//250 
f 250//250 252//252 252//252 
f 252//252 253//253 252//252 
f 252//252 253//253 253//253 
f 253//253 254//254 253//253 
f 253//253 254//254 255//255 
f 254//254 256//256 255//255 
f 255//255 256//256 257//257 
f 256//256 257//257 257//257 
f 257//257 257//257 258//258 
f 257//257 258//258 258//258 
f 258//258 258//258 258//258 
f 258//258 259//259 258//258 
f 258//258 259//259 260//260 
f 259//259 261//261 260//260 
f 260//260 261//261 262//262 
f 261//261 263//263 262//262 
f 262//262 263//263 264//264 
f 263//263 265//265 264//264 
f 264//264 265//265 266//266 
f 265//265 267//267 266//266 
f 266//266 267//267 268//268 
f 267//267 268//268 268//268 
f 268//268 268//268 269//269 
f 268//268 269//269 269//269 
f 269//269 269//269 269//269 
f 269//269 270//270 269//269 
f 269//269 270//270 271//271 
f 270//270 272//272 271//271 
f 271//271 272//272 273//273 
f 272//272 274//274 273//273 
f 273//273 274//274 275//275 
f 274//274 276//276 275//275 
f 275//275 276//276 277//277 
f 276//276 278//278 277//277 
f 277//277 278//278 279//279 
f 278//278 280//280 279//279 
f 279//279 280//280 281//281 
f 280//280 282//282 281//281 
f 281//281 282//282 283//283 
f 282//282 284//284 283//283 
f 283//283 284//284 285//285 
f 284//284 286//286 285//285 
f 285//285 286//286 269//269 
f 286//286 270//270 269//269 
f 269//269 270//270 270//270 
f 270//270 287//287 270//270 
f 270//270 287//287 287//287 
f 287//287 288//288 287//287 
f 287//287 288//288 289//289 
f 288//288 290//290 289//289 
f 289//289 290//290 291//291 
f 290//290 292//292 291//291 
f 291//291 292//292 292//292 
f 292//292 288//288 292//292 
f 292//292 288//288 288//288 
f 288//288 287//287 288//288 
f 288//288 287//287 293//293 
f 287//287 294//294 293//293 
f 293//293 294//294 295//295 
f 294//294 296//296 295//295 
f 295//295 296//296 296//296 
f 296//296 294//294 296//296 
f 296//296 294//294 294//294 
f 294//294 297//297 294//294 
f 294//294 297//297 296//296 
f 297//297 298//298 296//296 
f 296//296 298//298 298//298 
f 298//298 297//297 298//298 
f 298//298 297//297 297//297 
f 297//297 299//299 297//297 
f 297//297 299//299 298//298 
f 299//299 300//300 298//298 
f 298//298 300//300 301//301 
f 300//300 302//302 301//301 
f 301//301 302//302 303//303 
f 302//302 304//304 303//303 
f 303//303 304//304 304//304 
f 304//304 302//302 304//304 
f 304//304 302//302 302//302 
f 302//302 292//292 302//302 
f 302//302 292//292 304//304 
f 292//292 290//290 304//304 
f 28//28 27//27 305//305 
f 152//152 306//306 150//150 
f 252//252 251//251 307//307 
f 257//257 308//308 255//255 

